<?xml version="1.0" encoding="UTF-8" ?>
<svg version="1.1" width="256" height="256" xmlns="http://www.w3.org/2000/svg" shape-rendering="crispEdges">
<rect x="0" y="0" width="256" height="8" fill="#000000" />
<rect x="0" y="8" width="8" height="248" fill="#000000" />
<rect x="8" y="8" width="240" height="4" fill="#FFFFFF" />
<rect x="248" y="8" width="8" height="248" fill="#000000" />
<rect x="8" y="12" width="4" height="236" fill="#FFFFFF" />
<rect x="12" y="12" width="24" height="4" fill="#F4FF00" />
<rect x="36" y="12" width="8" height="4" fill="#000000" />
<rect x="44" y="12" width="52" height="4" fill="#F4FF00" />
<rect x="96" y="12" width="8" height="4" fill="#000000" />
<rect x="104" y="12" width="48" height="4" fill="#F4FF00" />
<rect x="152" y="12" width="8" height="4" fill="#000000" />
<rect x="160" y="12" width="52" height="4" fill="#F4FF00" />
<rect x="212" y="12" width="8" height="4" fill="#000000" />
<rect x="220" y="12" width="24" height="4" fill="#F4FF00" />
<rect x="244" y="12" width="4" height="236" fill="#FFFFFF" />
<rect x="12" y="16" width="20" height="8" fill="#F4FF00" />
<rect x="32" y="16" width="4" height="12" fill="#000000" />
<rect x="36" y="16" width="8" height="8" fill="#FF0000" />
<rect x="44" y="16" width="4" height="12" fill="#000000" />
<rect x="48" y="16" width="44" height="8" fill="#F4FF00" />
<rect x="92" y="16" width="4" height="40" fill="#000000" />
<rect x="96" y="16" width="8" height="8" fill="#FF0000" />
<rect x="104" y="16" width="4" height="12" fill="#000000" />
<rect x="108" y="16" width="40" height="8" fill="#F4FF00" />
<rect x="148" y="16" width="4" height="12" fill="#000000" />
<rect x="152" y="16" width="8" height="8" fill="#FF0000" />
<rect x="160" y="16" width="4" height="40" fill="#000000" />
<rect x="164" y="16" width="44" height="8" fill="#F4FF00" />
<rect x="208" y="16" width="4" height="12" fill="#000000" />
<rect x="212" y="16" width="8" height="8" fill="#FF0000" />
<rect x="220" y="16" width="4" height="12" fill="#000000" />
<rect x="224" y="16" width="20" height="8" fill="#F4FF00" />
<rect x="12" y="24" width="16" height="4" fill="#F4FF00" />
<rect x="28" y="24" width="4" height="68" fill="#000000" />
<rect x="36" y="24" width="8" height="4" fill="#000000" />
<rect x="48" y="24" width="16" height="4" fill="#000000" />
<rect x="64" y="24" width="28" height="4" fill="#F4FF00" />
<rect x="96" y="24" width="8" height="4" fill="#000000" />
<rect x="108" y="24" width="4" height="4" fill="#000000" />
<rect x="112" y="24" width="32" height="4" fill="#F4FF00" />
<rect x="144" y="24" width="4" height="4" fill="#000000" />
<rect x="152" y="24" width="8" height="4" fill="#000000" />
<rect x="164" y="24" width="28" height="4" fill="#F4FF00" />
<rect x="192" y="24" width="16" height="4" fill="#000000" />
<rect x="212" y="24" width="8" height="4" fill="#000000" />
<rect x="224" y="24" width="4" height="68" fill="#000000" />
<rect x="228" y="24" width="16" height="4" fill="#F4FF00" />
<rect x="12" y="28" width="12" height="216" fill="#F4FF00" />
<rect x="24" y="28" width="4" height="60" fill="#000000" />
<rect x="32" y="28" width="12" height="8" fill="#FFFFFF" />
<rect x="44" y="28" width="16" height="8" fill="#FEFEFE" />
<rect x="60" y="28" width="8" height="32" fill="#000000" />
<rect x="68" y="28" width="24" height="20" fill="#F4FF00" />
<rect x="96" y="28" width="4" height="28" fill="#000000" />
<rect x="100" y="28" width="4" height="8" fill="#F0F0F0" />
<rect x="104" y="28" width="8" height="8" fill="#FFFFFF" />
<rect x="112" y="28" width="4" height="28" fill="#000000" />
<rect x="116" y="28" width="24" height="20" fill="#F4FF00" />
<rect x="140" y="28" width="4" height="28" fill="#000000" />
<rect x="144" y="28" width="12" height="8" fill="#FFFFFF" />
<rect x="156" y="28" width="4" height="28" fill="#000000" />
<rect x="164" y="28" width="24" height="20" fill="#F4FF00" />
<rect x="188" y="28" width="8" height="32" fill="#000000" />
<rect x="196" y="28" width="28" height="8" fill="#FFFFFF" />
<rect x="228" y="28" width="4" height="60" fill="#000000" />
<rect x="232" y="28" width="12" height="216" fill="#F4FF00" />
<rect x="32" y="36" width="12" height="4" fill="#F7F7F7" />
<rect x="44" y="36" width="16" height="4" fill="#F6F6F6" />
<rect x="100" y="36" width="4" height="4" fill="#B4B4B4" />
<rect x="104" y="36" width="8" height="4" fill="#C3C3C3" />
<rect x="144" y="36" width="12" height="4" fill="#BFBFBF" />
<rect x="196" y="36" width="28" height="4" fill="#F7F7F7" />
<rect x="32" y="40" width="12" height="8" fill="#EFEFEF" />
<rect x="44" y="40" width="16" height="8" fill="#EEEEEE" />
<rect x="100" y="40" width="12" height="16" fill="#000000" />
<rect x="144" y="40" width="12" height="16" fill="#000000" />
<rect x="196" y="40" width="28" height="8" fill="#EFEFEF" />
<rect x="32" y="48" width="12" height="8" fill="#E7E7E7" />
<rect x="44" y="48" width="16" height="8" fill="#E6E6E6" />
<rect x="68" y="48" width="24" height="8" fill="#000000" />
<rect x="116" y="48" width="24" height="8" fill="#000000" />
<rect x="164" y="48" width="24" height="8" fill="#000000" />
<rect x="196" y="48" width="28" height="8" fill="#E7E7E7" />
<rect x="32" y="56" width="4" height="8" fill="#DFDFDF" />
<rect x="36" y="56" width="24" height="4" fill="#000000" />
<rect x="68" y="56" width="120" height="24" fill="#0054A0" />
<rect x="196" y="56" width="24" height="4" fill="#000000" />
<rect x="220" y="56" width="4" height="8" fill="#DFDFDF" />
<rect x="36" y="60" width="8" height="20" fill="#000000" />
<rect x="44" y="60" width="24" height="16" fill="#0054A0" />
<rect x="188" y="60" width="24" height="16" fill="#0054A0" />
<rect x="212" y="60" width="8" height="20" fill="#000000" />
<rect x="32" y="64" width="4" height="4" fill="#D7D7D7" />
<rect x="220" y="64" width="4" height="4" fill="#D7D7D7" />
<rect x="32" y="68" width="4" height="8" fill="#CFCFCF" />
<rect x="220" y="68" width="4" height="8" fill="#CFCFCF" />
<rect x="32" y="76" width="4" height="4" fill="#C7C7C7" />
<rect x="44" y="76" width="16" height="4" fill="#000000" />
<rect x="60" y="76" width="8" height="4" fill="#0054A0" />
<rect x="188" y="76" width="8" height="4" fill="#0054A0" />
<rect x="196" y="76" width="16" height="4" fill="#000000" />
<rect x="220" y="76" width="4" height="4" fill="#C7C7C7" />
<rect x="32" y="80" width="16" height="8" fill="#BFBFBF" />
<rect x="48" y="80" width="12" height="8" fill="#BEBEBE" />
<rect x="60" y="80" width="136" height="8" fill="#000000" />
<rect x="196" y="80" width="28" height="8" fill="#BFBFBF" />
<rect x="24" y="88" width="4" height="156" fill="#F4FF00" />
<rect x="32" y="88" width="28" height="4" fill="#000000" />
<rect x="60" y="88" width="8" height="4" fill="#FDFDFD" />
<rect x="68" y="88" width="4" height="60" fill="#000000" />
<rect x="72" y="88" width="112" height="52" fill="#0054A0" />
<rect x="184" y="88" width="4" height="60" fill="#000000" />
<rect x="188" y="88" width="8" height="4" fill="#FEFEFE" />
<rect x="196" y="88" width="28" height="4" fill="#000000" />
<rect x="228" y="88" width="4" height="156" fill="#F4FF00" />
<rect x="28" y="92" width="28" height="76" fill="#F4FF00" />
<rect x="56" y="92" width="4" height="56" fill="#000000" />
<rect x="60" y="92" width="8" height="8" fill="#F2F2F2" />
<rect x="188" y="92" width="8" height="8" fill="#F2F2F2" />
<rect x="196" y="92" width="4" height="56" fill="#000000" />
<rect x="200" y="92" width="28" height="76" fill="#F4FF00" />
<rect x="60" y="100" width="8" height="4" fill="#E6E6E6" />
<rect x="188" y="100" width="8" height="4" fill="#E7E7E7" />
<rect x="60" y="104" width="8" height="8" fill="#DBDBDB" />
<rect x="188" y="104" width="8" height="8" fill="#DCDCDC" />
<rect x="60" y="112" width="8" height="4" fill="#CFCFCF" />
<rect x="188" y="112" width="8" height="4" fill="#D1D1D1" />
<rect x="60" y="116" width="8" height="8" fill="#C4C4C4" />
<rect x="188" y="116" width="8" height="8" fill="#C6C6C6" />
<rect x="60" y="124" width="8" height="16" fill="#B8B8B8" />
<rect x="188" y="124" width="8" height="16" fill="#BBBBBB" />
<rect x="60" y="140" width="8" height="4" fill="#ACACAC" />
<rect x="72" y="140" width="112" height="4" fill="#000000" />
<rect x="188" y="140" width="8" height="4" fill="#B0B0B0" />
<rect x="60" y="144" width="8" height="24" fill="#000000" />
<rect x="72" y="144" width="112" height="20" fill="#0054A0" />
<rect x="188" y="144" width="8" height="24" fill="#000000" />
<rect x="56" y="148" width="4" height="12" fill="#F4FF00" />
<rect x="68" y="148" width="4" height="16" fill="#0054A0" />
<rect x="184" y="148" width="4" height="16" fill="#0054A0" />
<rect x="196" y="148" width="4" height="12" fill="#F4FF00" />
<rect x="56" y="160" width="4" height="16" fill="#000000" />
<rect x="196" y="160" width="4" height="16" fill="#000000" />
<rect x="68" y="164" width="120" height="4" fill="#000000" />
<rect x="28" y="168" width="24" height="8" fill="#F4FF00" />
<rect x="52" y="168" width="4" height="24" fill="#000000" />
<rect x="60" y="168" width="136" height="20" fill="#0054A0" />
<rect x="200" y="168" width="4" height="24" fill="#000000" />
<rect x="204" y="168" width="24" height="8" fill="#F4FF00" />
<rect x="28" y="176" width="20" height="12" fill="#F4FF00" />
<rect x="48" y="176" width="4" height="16" fill="#000000" />
<rect x="56" y="176" width="4" height="12" fill="#0054A0" />
<rect x="196" y="176" width="4" height="12" fill="#0054A0" />
<rect x="204" y="176" width="4" height="16" fill="#000000" />
<rect x="208" y="176" width="20" height="12" fill="#F4FF00" />
<rect x="28" y="188" width="8" height="56" fill="#F4FF00" />
<rect x="36" y="188" width="12" height="4" fill="#000000" />
<rect x="56" y="188" width="144" height="4" fill="#000000" />
<rect x="208" y="188" width="12" height="4" fill="#000000" />
<rect x="220" y="188" width="8" height="56" fill="#F4FF00" />
<rect x="36" y="192" width="8" height="52" fill="#000000" />
<rect x="44" y="192" width="168" height="40" fill="#0054A0" />
<rect x="212" y="192" width="8" height="52" fill="#000000" />
<rect x="44" y="232" width="168" height="12" fill="#000000" />
<rect x="12" y="244" width="232" height="4" fill="#FFFFFF" />
<rect x="8" y="248" width="240" height="8" fill="#000000" />
</svg>